<svg width="16" height="18" viewBox="0 0 16 18" fill="none" xmlns="http://www.w3.org/2000/svg">
<path d="M10.6689 9.6375e-07H3.42857C2.51939 9.6375e-07 1.64724 0.355486 1.00429 0.988595C0.361326 1.62151 0 2.47977 0 3.375V14.625C0 15.5202 0.361326 16.3785 1.00429 17.0114C1.64724 17.6445 2.51934 18 3.42857 18H12.5714C13.4806 18 14.3528 17.6445 14.9957 17.0114C15.6387 16.3785 16 15.5202 16 14.625V5.24833C16.0004 4.65132 15.7598 4.07868 15.3314 3.6565L12.2857 0.658226C11.8566 0.236431 11.2752 -0.000551492 10.6689 9.6375e-07ZM13.7145 14.625C13.7145 14.9234 13.5942 15.2094 13.3797 15.4205C13.1655 15.6314 12.8747 15.7499 12.5718 15.7499H3.4289C3.12597 15.7499 2.83518 15.6314 2.62094 15.4205C2.4065 15.2094 2.28612 14.9234 2.28612 14.625V3.375C2.28612 3.0766 2.4065 2.79055 2.62094 2.57947C2.83519 2.36857 3.12596 2.25007 3.4289 2.25007H10.6692L13.7149 5.24815L13.7145 14.625Z" fill="#BABABA"/>
<path d="M10.2862 10.6875H5.71472C5.30635 10.6875 4.9291 10.902 4.72502 11.25C4.52094 11.598 4.52094 12.0269 4.72502 12.3749C4.9291 12.7229 5.3064 12.9373 5.71472 12.9373H10.2862C10.6946 12.9373 11.0719 12.7229 11.2759 12.3749C11.48 12.0269 11.48 11.598 11.2759 11.25C11.0719 10.902 10.6946 10.6875 10.2862 10.6875Z" fill="#BABABA"/>
<path d="M5.71478 6.18749C5.30641 6.18749 4.92916 6.40192 4.72508 6.74994C4.521 7.09797 4.521 7.52685 4.72508 7.87504C4.92916 8.22307 5.30646 8.43749 5.71478 8.43749H10.2863C10.6947 8.43749 11.0719 8.22306 11.276 7.87504C11.4801 7.52682 11.4801 7.09794 11.276 6.74994C11.0719 6.40191 10.6946 6.18749 10.2863 6.18749H5.71478Z" fill="#BABABA"/>
</svg>
