<svg width="240" height="156" viewBox="0 0 240 156" fill="none" xmlns="http://www.w3.org/2000/svg">
<path d="M211.192 77.9697C211.192 81.7366 211.192 85.5034 211.192 89.2703C211.192 89.9183 211.172 90.4854 212.106 90.4651C214.683 90.3841 217.28 90.5461 219.858 90.3031C223.652 89.9386 226.757 88.2172 228.34 84.5111C229.781 81.1898 229.862 77.6862 229.152 74.1624C228.158 69.2412 224.83 66.1831 219.898 65.7984C217.402 65.5958 214.886 65.6971 212.39 65.5756C211.395 65.5148 211.172 65.9199 211.192 66.8514C211.233 70.517 211.192 74.2434 211.192 77.9697ZM202.832 58.2242C202.933 58.1837 202.974 58.1431 202.994 58.1431C209.995 58.2039 217.077 57.3331 223.997 58.7507C231.039 60.2088 236.052 64.968 237.614 72.522C238.649 77.5444 238.406 82.4251 236.437 87.2046C234.449 92.0043 230.938 95.1838 226.108 96.6622C223.531 97.452 220.73 97.8368 218.031 97.9583C213.283 98.1608 208.493 98.0191 203.745 98.0191C203.461 98.0191 203.197 97.9786 202.832 97.9583V58.2242Z" fill="black"/>
<path d="M128.822 76.8354C131.541 76.8354 134.118 76.8354 136.696 76.8354C137.386 76.8354 138.076 76.8354 138.745 76.7138C142.114 76.0455 143.798 74.0203 143.656 70.9218C143.514 67.9448 141.627 65.9804 138.258 65.7373C135.397 65.5146 132.536 65.6361 129.654 65.5753C129.025 65.5551 128.802 65.8183 128.802 66.4461C128.822 68.0055 128.802 69.5649 128.802 71.1243V76.8354H128.822ZM155.406 97.9986C152.078 97.9986 149.075 98.0188 146.051 97.9783C145.767 97.9783 145.402 97.6745 145.199 97.4112C141.992 93.2394 138.847 89.0472 135.62 84.9158C135.255 84.4501 134.524 84.126 133.936 84.0653C132.617 83.9438 128.822 84.0045 128.822 84.0045C128.822 84.0045 128.781 84.3285 128.781 85.2196C128.822 88.946 128.802 92.6723 128.802 96.3987V97.9378H120.42V58.1429C120.745 58.1024 121.029 58.0416 121.313 58.0416C127.097 58.0619 132.86 58.0214 138.644 58.1024C141.546 58.1429 144.285 58.9327 146.822 60.4313C150.252 62.4768 151.895 65.6361 152.159 69.5244C152.281 71.2458 152.139 73.0685 151.774 74.7494C150.962 78.4555 148.527 80.8655 145.138 82.3439C144.712 82.5464 144.265 82.7286 143.717 82.9919C147.593 87.9739 151.408 92.8748 155.406 97.9986Z" fill="black"/>
<path d="M178.317 66.7502C176.207 72.2992 174.137 77.7875 172.026 83.3972H184.669C182.518 77.7875 180.428 72.279 178.317 66.7502ZM198.895 97.9988C196.074 97.9988 193.416 98.0191 190.757 97.9583C190.453 97.9583 190.047 97.4723 189.905 97.128C189.154 95.2851 188.444 93.4219 187.754 91.5385C187.49 90.8297 187.145 90.5259 186.354 90.5259C181.016 90.5664 175.679 90.5664 170.342 90.5259C169.53 90.5259 169.124 90.7892 168.861 91.579C168.171 93.5029 167.379 95.3863 166.588 97.2495C166.466 97.5533 166.08 97.9381 165.817 97.9381C163.158 97.9988 160.5 97.9583 157.638 97.9583C158.552 95.6496 159.384 93.5029 160.256 91.3562C164.599 80.5822 168.982 69.8082 173.305 59.0342C173.609 58.2647 173.995 57.9812 174.807 58.0014C177.201 58.0622 179.576 58.0217 181.97 58.0217C182.579 58.0217 182.985 58.1229 183.269 58.8115C188.383 71.6107 193.537 84.3896 198.672 97.1685C198.753 97.3913 198.793 97.5938 198.895 97.9988Z" fill="black"/>
<path d="M47.0804 98.019H38.679V58.1633C41.2765 58.1633 43.7929 58.1431 46.3295 58.2038C46.5934 58.2038 46.8978 58.5886 47.1007 58.8722C52.3364 66.2843 57.572 73.7168 62.7874 81.1289C63.4165 82.02 64.0659 82.8909 64.837 83.9845V58.2241H73.1573V98.0798C70.6207 98.0798 68.084 98.1 65.5473 98.0392C65.2632 98.0392 64.9182 97.5937 64.695 97.2697C59.0737 89.3107 53.4931 81.3517 47.8718 73.3927C47.6689 73.1092 47.4457 72.8662 47.0601 72.4004V98.019H47.0804Z" fill="black"/>
<path d="M18.9946 97.9785H27.3149V58.2241H18.9946V97.9785Z" fill="black"/>
<path d="M111.796 76.1874C111.796 75.9038 111.735 75.3975 111.207 75.3975C110.984 75.3975 110.781 75.3975 110.558 75.3773H109.503C107.636 75.357 105.748 75.357 103.78 75.357V75.3773H96.9817V83.0932H103.76C103.76 85.0982 103.76 87.1031 103.8 88.9258C103.76 91.0725 102.989 91.0927 101.649 91.3357C100.655 91.518 99.5387 91.518 97.9152 91.3965C94.4856 91.113 91.3402 89.9991 88.9861 87.2651C86.9162 84.8551 86.3074 81.9389 86.1045 78.8201C85.7392 72.8863 88.9659 67.9246 94.5262 66.1627C99.8431 64.4818 104.937 65.2514 109.848 67.7626C110.111 67.9043 110.396 68.0056 110.842 68.2081C110.842 65.8589 110.801 63.6717 110.862 61.5048C110.883 60.5934 110.619 60.1276 109.766 59.8036C104.368 57.7582 98.869 57.0493 93.1869 58.3252C89.0064 59.2771 85.2522 61.0997 82.3705 64.4008C77.6016 69.9093 76.729 76.4709 78.048 83.316C79.5497 91.1535 84.5013 95.9127 92.0504 97.9784C98.5037 99.7403 106.378 98.9909 110.964 96.5405C111.309 96.3987 111.755 95.8924 111.755 95.5481C111.836 89.5131 111.836 82.2224 111.796 76.1874Z" fill="black"/>
<path d="M8.32026 108.631V44.1288L64.8575 13.8725V47.5716H73.1777V0L0 39.1468V116.934H73.1777V108.631H8.32026Z" fill="black"/>
<path d="M128.66 121.896C130.04 123.962 130.1 126.027 128.842 128.255C128.152 129.45 127.077 130.503 125.656 131.374C124.215 132.245 122.815 132.67 121.455 132.67C121.111 132.67 120.664 132.609 120.522 132.366C120.4 132.184 120.157 131.333 121.638 128.68C123.485 125.541 125.859 123.273 128.66 121.896ZM149.034 123.881C148.994 123.921 148.973 123.962 148.933 123.982L148.628 124.184L149.034 123.881ZM180.631 110.211C180.874 109.846 181.483 109.137 183.005 107.699C183.817 107.051 184.243 106.889 184.405 106.849C184.385 107.315 184.162 108.509 182.883 111.588C182.559 112.742 182.153 113.572 181.686 114.058C181.585 114.139 181.341 114.241 180.813 114.119C180.225 113.977 179.941 113.795 179.86 113.734C179.271 112.985 179.515 111.79 180.631 110.211ZM170.667 123.415C170.525 123.415 170.484 123.395 170.464 123.273C169.409 120.924 169.51 118.392 170.748 115.557C171.539 113.613 172.838 111.75 174.583 110.049C176.045 108.631 177.404 107.72 178.601 107.335C177.201 109.117 176.856 109.846 176.734 110.271C176.511 111 176.552 112.236 176.897 114.301C177.343 115.395 178.256 116.286 179.616 116.914L179.839 117.015C177.972 119.486 177.1 120.336 176.653 120.681L174.989 122.2C173.792 123.192 172.412 123.597 170.667 123.415ZM239.603 79.6708C239.563 79.61 239.542 79.5695 239.502 79.529C239.157 79.1847 238.589 79.043 237.614 79.043C237.046 79.043 236.133 79.0632 234.855 79.124C233.617 79.1645 232.947 79.205 232.846 79.205C232.683 79.205 232.419 79.1442 232.054 78.9417C232.237 78.5367 232.501 77.9494 232.846 77.1798C233.434 75.8634 233.921 74.9318 234.266 74.4053C234.855 73.5142 235.037 72.7041 234.794 72.0156C234.55 71.3472 233.921 70.841 232.906 70.5574C232.846 70.5372 232.785 70.5372 232.703 70.5372C232.216 70.5372 231.851 70.5372 229.416 75.2761C227.813 78.6784 227.305 79.4277 227.163 79.5898C227.062 79.6303 226.656 79.7315 225.256 79.9138C223.551 80.1568 222.963 80.1973 222.658 80.1973C222.049 80.2783 220.568 80.3391 218.275 80.3391H217.707C217.626 80.3391 217.524 80.3593 217.443 80.3796C216.936 80.5821 216.327 81.0479 216.246 82.1617C216.185 83.0731 216.631 83.7819 217.483 84.0654C217.565 84.0857 217.626 84.1059 217.707 84.1059H220.609C222.009 83.9237 222.78 83.8426 222.902 83.8224C223.003 83.8224 223.389 83.7819 224.059 83.6806C224.525 83.6199 224.911 83.5591 225.236 83.5186L219.026 97.9582C216.225 103.811 214.095 108.449 212.694 111.709L212.288 112.681C212.268 112.6 212.207 112.56 212.126 112.479C212.106 112.438 211.923 112.033 211.964 109.947C212.025 107.841 212.349 106.889 212.633 106.444C212.735 106.282 212.755 106.099 212.715 105.917L212.593 105.411C212.268 103.446 211.132 103.163 210.421 103.163C209.305 103.305 207.032 104.176 200.336 110.231C200.234 110.332 200.133 110.433 200.031 110.535C200.823 108.59 201.716 106.14 202.73 103.143C203.096 102.211 202.852 101.685 202.568 101.421C202.324 101.178 202.081 100.996 201.817 100.874C201.533 100.733 201.147 100.652 200.66 100.652H199.544C199.24 100.652 198.976 100.854 198.875 101.138C197.961 103.993 196.52 107.821 194.613 112.519C194.593 112.54 194.572 112.54 194.552 112.54L192.746 113.795C190.392 115.274 188.2 115.861 186.232 115.517C185.522 115.395 185.298 115.213 185.258 115.253C185.278 115.152 185.4 114.828 185.907 113.815C187.855 109.117 188.099 106.342 186.658 105.006C184.689 103.568 183.959 103.365 183.411 103.487C183.107 103.568 182.579 103.811 181.118 104.965C180.854 104.338 180.347 103.973 179.718 103.892L179.068 103.507C178.581 103.305 178.175 103.284 177.851 103.446C177.709 103.507 177.587 103.608 177.485 103.75C172.879 105.775 169.591 108.773 167.663 112.641L165.167 114.261C163.077 115.253 161.21 115.942 159.587 116.286L159.242 116.387C159.282 116.286 159.323 116.185 159.363 116.084C160.885 113.714 162.042 111.405 162.793 109.259C163.909 106.687 164.071 104.783 163.3 103.406C162.692 102.333 161.535 101.664 159.81 101.442C157.801 101.361 155.305 102.981 152.261 106.423C150.576 108.185 149.704 109.117 149.602 109.218C149.399 109.401 148.851 110.028 147.959 111.081C147.654 111.426 147.37 111.77 147.086 112.094C147.938 110.271 148.243 109.603 148.344 109.299L149.318 107.193C150.231 105.107 150.353 104.459 150.353 104.115C150.353 103.021 148.851 102.616 148.304 102.454C148.263 102.434 148.202 102.373 148.06 102.252C147.573 101.968 147.167 101.988 146.924 102.069C146.538 102.191 146.213 102.495 145.95 103.001L144.265 106.93L142.155 112.114C141.911 112.175 141.627 112.276 141.302 112.418C140.876 112.54 140.409 112.742 139.922 113.046C139.456 113.309 138.806 113.653 137.954 114.058C137.081 114.484 136.31 114.828 135.641 115.112C133.185 116.286 131.44 117.076 130.425 117.44L130.161 117.116C130.121 117.076 130.08 117.035 130.04 116.995C129.35 116.489 128.72 115.8 128.152 114.99C127.625 114.22 127.361 113.228 127.361 112.013C127.361 110.838 127.848 109.785 128.842 108.793C129.654 107.983 130.385 107.355 131.054 106.869C131.724 106.282 132.597 105.836 133.672 105.553C134.545 105.31 135.296 105.289 135.925 105.472C135.823 106.525 136.452 106.97 136.716 107.092C138.076 107.882 138.786 107.234 139.07 106.829C139.598 105.917 139.395 104.824 138.4 103.467C138.218 103.284 137.832 103.021 135.478 102.049C134.463 101.705 133.063 101.948 131.176 102.778C129.431 103.548 127.99 104.439 126.894 105.451C124.905 107.436 123.81 109.644 123.607 112.053C123.505 113.694 124.053 115.415 125.291 117.137C126.021 118.089 126.549 118.858 126.853 119.445C126.711 119.547 126.488 119.729 126.103 119.972C121.029 124.083 118.168 128.093 117.579 131.9C117.356 133.419 117.539 134.513 118.148 135.303C118.533 135.809 119.244 136.356 120.4 136.356C120.522 136.356 120.664 136.356 120.786 136.335C122.876 136.335 125.007 135.647 127.138 134.27C129.228 132.913 130.872 131.293 132.049 129.43C133.591 126.837 133.591 123.739 132.049 120.215C132.475 119.952 133.388 119.445 135.275 118.494C137.974 117.157 138.705 116.711 138.969 116.529L140.369 116.023C140.491 115.982 140.572 115.962 140.673 115.922L138.989 120.114L136.31 125.886L125.798 151.909C125.047 153.55 125.616 154.603 126.224 155.21C126.772 155.757 127.28 156 127.787 156C127.828 156 127.868 156 127.909 156C128.233 155.98 128.7 155.818 129.167 155.149L131.135 150.795L139.537 130.543L142.885 123.881C143.616 122.706 146.031 119.425 150.292 113.856C151.652 112.033 153.905 109.664 156.928 106.829C158.856 105.208 159.891 104.641 160.317 104.5C160.358 104.864 160.297 105.937 159.079 108.671C157.699 111.77 156.644 113.856 155.893 114.889C155.264 115.881 154.757 116.57 154.412 116.975C154.067 117.359 153.722 117.684 153.397 117.927C153.174 118.109 152.606 118.453 151.266 119.121C148.202 120.64 145.828 122.402 144.204 124.286C143.393 125.096 143.372 126.129 144.143 127.141C144.793 128.012 145.645 128.579 146.741 128.822C147.877 128.944 149.176 128.336 150.617 126.979C152.342 125.541 154.168 123.577 155.995 121.187C156.299 120.883 156.644 120.661 157.05 120.499C158.836 119.709 159.566 119.486 159.932 119.405C162.752 118.534 164.721 117.744 166.04 117.015C165.593 118.716 165.533 120.499 165.878 122.341C166.202 125.096 167.826 126.655 170.626 126.878C173.528 126.878 175.943 125.906 177.851 124.022L183.31 118.575C183.31 118.575 183.553 118.433 184.527 118.615C187.287 119.142 190.006 118.777 192.644 117.501C192.421 118.008 192.218 118.514 191.975 119.061L188.992 126.169C188.789 126.979 188.809 127.465 189.073 127.809C189.215 127.992 189.418 128.113 189.661 128.154C190.088 128.275 190.453 128.336 190.777 128.336C192.015 128.336 192.584 127.566 192.847 126.918C192.888 126.777 193.03 126.493 193.274 126.068C193.639 125.399 193.862 124.873 193.943 124.529C194.572 122.989 196.074 120.539 198.367 117.238C199.179 116.063 200.62 114.443 202.629 112.438C204.658 110.413 206.525 108.935 208.149 108.023C208.169 111.547 209.143 113.876 211.051 114.929C211.172 114.99 211.294 115.01 211.436 114.99L211.193 115.598C211.152 115.679 211.152 115.719 211.152 115.8C211.152 115.8 211.132 115.841 211.091 115.962L210.888 116.387C210.827 116.61 210.624 117.197 209.955 118.716C209.386 120.012 209.001 120.924 208.818 121.491C208.007 123.597 207.925 125.561 208.534 127.283C209.143 129.065 210.056 130.138 211.213 130.422C211.436 130.483 211.68 130.503 211.923 130.503C212.999 130.503 214.196 129.895 215.535 128.701C218.092 126.594 221.015 124.448 224.201 122.301C228.706 119.121 231.932 116.549 233.738 114.727C234.976 113.836 234.855 112.965 234.692 112.499C234.631 112.337 234.51 112.216 234.347 112.135C233.84 111.891 233.211 112.135 232.359 112.621C224.85 118.17 219.148 122.26 215.454 124.751L212.025 126.675C211.781 126.777 211.659 126.777 211.639 126.797C211.619 126.756 211.578 126.635 211.558 126.27C211.517 125.805 211.801 124.103 214.318 117.785L227.265 89.2094C229.254 84.1262 229.862 83.3161 230.086 83.1136C230.268 82.9718 231.344 82.506 237.574 82.506C238.365 82.506 239.461 82.4048 239.908 81.6149C240.09 81.0074 240.009 80.3796 239.603 79.6708Z" fill="black"/>
</svg>
