<svg width="88" height="57" viewBox="0 0 88 57" fill="none" xmlns="http://www.w3.org/2000/svg">
<g opacity="0.3">
<path d="M77.4372 28.4889C77.4372 29.8652 77.4372 31.2415 77.4372 32.6179C77.4372 32.8547 77.4298 33.0619 77.7721 33.0545C78.7171 33.0249 79.6695 33.0841 80.6145 32.9953C82.0059 32.8621 83.1444 32.2331 83.7248 30.879C84.2531 29.6654 84.2828 28.3853 84.0224 27.0977C83.6578 25.2996 82.4375 24.1822 80.6294 24.0416C79.7141 23.9676 78.7915 24.0046 77.8762 23.9602C77.5116 23.938 77.4298 24.086 77.4372 24.4264C77.4521 25.7658 77.4372 27.1273 77.4372 28.4889ZM74.3716 21.2741C74.4088 21.2593 74.4237 21.2445 74.4311 21.2445C76.9982 21.2667 79.5951 20.9485 82.1324 21.4665C84.7144 21.9993 86.5523 23.7382 87.1253 26.4983C87.5047 28.3335 87.4154 30.1168 86.6937 31.8631C85.9645 33.6169 84.6772 34.7786 82.9063 35.3188C81.9613 35.6074 80.9344 35.748 79.9448 35.7924C78.2036 35.8664 76.4476 35.8146 74.7064 35.8146C74.6022 35.8146 74.5055 35.7998 74.3716 35.7924V21.2741Z" fill="black"/>
<path d="M47.2348 28.0745C48.2319 28.0745 49.1769 28.0745 50.1219 28.0745C50.3749 28.0745 50.6279 28.0745 50.8734 28.0301C52.1086 27.7859 52.7262 27.0459 52.6741 25.9137C52.622 24.826 51.93 24.1082 50.6948 24.0194C49.6457 23.938 48.5965 23.9824 47.5399 23.9602C47.3092 23.9528 47.2274 24.049 47.2274 24.2784C47.2348 24.8482 47.2274 25.418 47.2274 25.9877V28.0745H47.2348ZM56.9824 35.8072C55.7621 35.8072 54.6608 35.8146 53.5521 35.7998C53.448 35.7998 53.314 35.6888 53.2396 35.5926C52.064 34.0682 50.9106 32.5365 49.7275 31.0269C49.5936 30.8568 49.3257 30.7384 49.1099 30.7162C48.6263 30.6718 47.2348 30.694 47.2348 30.694C47.2348 30.694 47.2199 30.8124 47.2199 31.1379C47.2348 32.4995 47.2274 33.861 47.2274 35.2226V35.785H44.1543V21.2445C44.2734 21.2297 44.3775 21.2075 44.4817 21.2075C46.6023 21.2149 48.7156 21.2001 50.8362 21.2297C51.9003 21.2445 52.9048 21.5331 53.8349 22.0807C55.0924 22.8281 55.6951 23.9824 55.7918 25.4032C55.8365 26.0321 55.7844 26.6981 55.6505 27.3123C55.3528 28.6664 54.4599 29.547 53.2173 30.0872C53.061 30.1612 52.8973 30.2278 52.6964 30.324C54.1176 32.1443 55.5165 33.935 56.9824 35.8072Z" fill="black"/>
<path d="M65.383 24.3894C64.6092 26.417 63.8502 28.4223 63.0764 30.472H67.712C66.9233 28.4223 66.1569 26.4096 65.383 24.3894ZM72.9281 35.8072C71.8938 35.8072 70.9191 35.8146 69.9443 35.7924C69.8327 35.7924 69.6839 35.6148 69.6318 35.489C69.3565 34.8156 69.0961 34.1349 68.8431 33.4467C68.7463 33.1877 68.6198 33.0767 68.3296 33.0767C66.3727 33.0915 64.4157 33.0915 62.4588 33.0767C62.1611 33.0767 62.0123 33.1729 61.9156 33.4615C61.6626 34.1645 61.3724 34.8526 61.0822 35.5334C61.0376 35.6444 60.8962 35.785 60.7995 35.785C59.8247 35.8072 58.8499 35.7924 57.8008 35.7924C58.1356 34.9488 58.4407 34.1645 58.7607 33.3801C60.353 29.4434 61.9602 25.5068 63.5451 21.5701C63.6568 21.2889 63.7981 21.1854 64.0958 21.1928C64.9738 21.2149 65.8444 21.2001 66.7224 21.2001C66.9456 21.2001 67.0944 21.2371 67.1986 21.4887C69.0737 26.1654 70.9637 30.8346 72.8462 35.5038C72.876 35.5852 72.8909 35.6592 72.9281 35.8072Z" fill="black"/>
<path d="M17.2629 35.8146H14.1824V21.2519C15.1348 21.2519 16.0575 21.2445 16.9876 21.2667C17.0843 21.2667 17.1959 21.4073 17.2703 21.5109C19.1901 24.2192 21.1098 26.9349 23.0221 29.6432C23.2528 29.9688 23.4909 30.287 23.7737 30.6866V21.2741H26.8244V35.8368C25.8943 35.8368 24.9642 35.8442 24.0341 35.822C23.9299 35.822 23.8034 35.6592 23.7216 35.5408C21.6605 32.6327 19.6142 29.7246 17.5531 26.8165C17.4787 26.7129 17.3968 26.6241 17.2555 26.4539V35.8146H17.2629Z" fill="black"/>
<path d="M6.9646 35.7998H10.0154V21.2742H6.9646V35.7998Z" fill="black"/>
<path d="M40.9917 27.8378C40.9917 27.7342 40.9694 27.5492 40.776 27.5492C40.6941 27.5492 40.6197 27.5492 40.5378 27.5418H40.1509C39.4664 27.5344 38.7744 27.5344 38.0526 27.5344V27.5418H35.5599V30.3611H38.0451C38.0451 31.0936 38.0451 31.8262 38.06 32.4922C38.0451 33.2765 37.7624 33.2839 37.2713 33.3727C36.9067 33.4393 36.4974 33.4393 35.9022 33.3949C34.6447 33.2913 33.4913 32.8844 32.6282 31.8854C31.8692 31.0048 31.646 29.9393 31.5716 28.7997C31.4376 26.6316 32.6207 24.8187 34.6595 24.1749C36.6091 23.5607 38.4767 23.8419 40.2774 24.7595C40.3741 24.8113 40.4783 24.8483 40.642 24.9223C40.642 24.0639 40.6271 23.2647 40.6495 22.473C40.6569 22.14 40.5602 21.9698 40.2476 21.8514C38.2684 21.104 36.2519 20.845 34.1684 21.3112C32.6356 21.659 31.2591 22.325 30.2024 23.5311C28.4538 25.5438 28.1339 27.9414 28.6175 30.4425C29.1682 33.3061 30.9837 35.0451 33.7518 35.7999C36.118 36.4436 39.005 36.1698 40.6867 35.2745C40.8132 35.2227 40.9769 35.0377 40.9769 34.9119C41.0066 32.7068 41.0066 30.0429 40.9917 27.8378Z" fill="black"/>
<path d="M3.05076 39.6921V16.124L23.7811 5.06881V17.3819H26.8318V0L0 14.3037V42.726H26.8318V39.6921H3.05076Z" fill="black"/>
<path d="M47.1752 44.5389C47.6812 45.2937 47.7035 46.0484 47.2422 46.8624C46.9892 47.299 46.5948 47.6838 46.0739 48.0019C45.5456 48.3201 45.0322 48.4755 44.5337 48.4755C44.4072 48.4755 44.2435 48.4533 44.1914 48.3645C44.1467 48.2979 44.0575 47.9872 44.6006 47.0178C45.2778 45.8708 46.1483 45.0421 47.1752 44.5389ZM54.6458 45.2641C54.631 45.2789 54.6235 45.2937 54.6086 45.3011L54.497 45.375L54.6458 45.2641ZM66.2313 40.2692C66.3206 40.136 66.5438 39.8771 67.1019 39.3517C67.3995 39.1149 67.5558 39.0557 67.6153 39.0409C67.6079 39.2111 67.526 39.6477 67.0572 40.7724C66.9382 41.1942 66.7894 41.4976 66.6182 41.6752C66.581 41.7048 66.4917 41.7418 66.2983 41.6974C66.0825 41.6456 65.9783 41.579 65.9485 41.5568C65.7328 41.283 65.822 40.8464 66.2313 40.2692ZM62.5778 45.0939C62.5257 45.0939 62.5109 45.0865 62.5034 45.0421C62.1165 44.1837 62.1537 43.2587 62.6076 42.2228C62.8978 41.5124 63.374 40.8316 64.0139 40.21C64.5497 39.6921 65.0482 39.3591 65.4872 39.2185C64.9738 39.8697 64.8473 40.136 64.8026 40.2914C64.7208 40.5578 64.7357 41.0092 64.8622 41.764C65.0259 42.1636 65.3607 42.4892 65.8593 42.7185L65.9411 42.7555C65.2565 43.6583 64.9366 43.9691 64.7729 44.0949L64.1627 44.6499C63.7237 45.0125 63.2177 45.1605 62.5778 45.0939ZM87.8545 29.1105C87.8396 29.0883 87.8322 29.0735 87.8173 29.0587C87.6908 28.9329 87.4825 28.8811 87.1253 28.8811C86.917 28.8811 86.5821 28.8885 86.1133 28.9107C85.6594 28.9255 85.4139 28.9403 85.3767 28.9403C85.3172 28.9403 85.2204 28.9181 85.0865 28.8441C85.1535 28.6961 85.2502 28.4815 85.3767 28.2003C85.5925 27.7193 85.7711 27.3789 85.8976 27.1865C86.1133 26.861 86.1803 26.565 86.091 26.3134C86.0017 26.0692 85.7711 25.8842 85.399 25.7806C85.3767 25.7732 85.3544 25.7732 85.3246 25.7732C85.146 25.7732 85.0121 25.7732 84.1192 27.5047C83.5314 28.7479 83.3453 29.0217 83.2933 29.0809C83.256 29.0957 83.1072 29.1327 82.5938 29.1993C81.9688 29.2881 81.753 29.3029 81.6414 29.3029C81.4181 29.3325 80.875 29.3547 80.0341 29.3547H79.8258C79.796 29.3547 79.7588 29.3621 79.7291 29.3695C79.543 29.4435 79.3198 29.6136 79.2901 30.0206C79.2677 30.3536 79.4314 30.6126 79.7439 30.7162C79.7737 30.7236 79.796 30.731 79.8258 30.731H80.8898C81.4033 30.6644 81.686 30.6348 81.7307 30.6274C81.7679 30.6274 81.9092 30.6126 82.1548 30.5756C82.3259 30.5534 82.4673 30.5312 82.5864 30.5164L80.3094 35.7924C79.2826 37.9309 78.5013 39.6255 77.9879 40.8168L77.8391 41.172C77.8316 41.1424 77.8093 41.1276 77.7796 41.098C77.7721 41.0832 77.7051 40.9352 77.72 40.173C77.7423 39.4035 77.8614 39.0557 77.9656 38.8929C78.0028 38.8337 78.0102 38.7671 77.9953 38.7005L77.9507 38.5155C77.8316 37.7977 77.415 37.6941 77.1545 37.6941C76.7453 37.7459 75.9119 38.0641 73.4564 40.2766C73.4192 40.3136 73.382 40.3506 73.3448 40.3876C73.635 39.6773 73.9624 38.7819 74.3344 37.6867C74.4684 37.3464 74.3791 37.154 74.2749 37.0578C74.1856 36.969 74.0963 36.9024 73.9996 36.858C73.8954 36.8062 73.754 36.7766 73.5755 36.7766H73.1662C73.0546 36.7766 72.9579 36.8506 72.9207 36.9542C72.5858 37.9975 72.0575 39.3961 71.3581 41.1128C71.3506 41.1202 71.3432 41.1202 71.3357 41.1202L70.6735 41.579C69.8104 42.1192 69.0068 42.3338 68.285 42.208C68.0246 42.1636 67.9427 42.097 67.9278 42.1118C67.9353 42.0748 67.9799 41.9564 68.1659 41.5864C68.8803 39.8697 68.9695 38.8559 68.4412 38.3675C67.7195 37.8421 67.4516 37.7681 67.2507 37.8125C67.1391 37.8421 66.9456 37.9309 66.4099 38.3527C66.3131 38.1233 66.1271 37.9901 65.8965 37.9605L65.6584 37.8199C65.4798 37.7459 65.331 37.7385 65.2119 37.7977C65.1598 37.8199 65.1152 37.8569 65.078 37.9087C63.3889 38.6487 62.1835 39.7439 61.4766 41.1572L60.5613 41.7492C59.7949 42.1118 59.1104 42.3634 58.5151 42.4892L58.3886 42.5262C58.4035 42.4892 58.4184 42.4522 58.4332 42.4152C58.9913 41.5494 59.4154 40.7058 59.6908 39.9215C60.1 38.9817 60.1595 38.2861 59.8768 37.7829C59.6536 37.3908 59.2294 37.1466 58.5969 37.0652C57.8603 37.0356 56.9451 37.6275 55.8289 38.8855C55.2113 39.5293 54.8914 39.8697 54.8542 39.9067C54.7798 39.9733 54.5789 40.2026 54.2515 40.5874C54.1399 40.7132 54.0357 40.839 53.9315 40.9574C54.244 40.2914 54.3556 40.0473 54.3929 39.9363L54.75 39.1667C55.0849 38.4045 55.1295 38.1677 55.1295 38.0419C55.1295 37.6423 54.5789 37.4943 54.378 37.4351C54.3631 37.4277 54.3408 37.4056 54.2887 37.3612C54.1101 37.2576 53.9613 37.265 53.872 37.2946C53.7306 37.339 53.6116 37.45 53.5148 37.6349L52.8972 39.0705L52.1234 40.9648C52.0341 40.987 51.9299 41.024 51.8109 41.0758C51.6546 41.1202 51.4835 41.1942 51.3049 41.3052C51.1337 41.4014 50.8956 41.5272 50.5831 41.6752C50.2632 41.8306 49.9804 41.9564 49.7349 42.06C48.8345 42.4892 48.1946 42.7777 47.8225 42.9109L47.7258 42.7925C47.7109 42.7777 47.6961 42.7629 47.6812 42.7481C47.4282 42.5632 47.1975 42.3116 46.9892 42.0156C46.7957 41.7344 46.699 41.3718 46.699 40.9278C46.699 40.4986 46.8776 40.1138 47.2422 39.7513C47.5398 39.4553 47.8077 39.2259 48.0532 39.0483C48.2988 38.8337 48.6187 38.6709 49.0131 38.5673C49.333 38.4785 49.6084 38.4711 49.839 38.5377C49.8018 38.9225 50.0325 39.0853 50.1292 39.1297C50.6278 39.4183 50.8882 39.1815 50.9924 39.0335C51.1858 38.7005 51.1114 38.3009 50.7468 37.8051C50.6798 37.7385 50.5385 37.6423 49.6753 37.2872C49.3033 37.1614 48.7899 37.2502 48.0979 37.5535C47.4579 37.8347 46.9296 38.1603 46.5278 38.5303C45.7986 39.2555 45.3968 40.0621 45.3224 40.9426C45.2852 41.542 45.4861 42.171 45.94 42.7999C46.2079 43.1477 46.4013 43.4289 46.5129 43.6435C46.4609 43.6805 46.379 43.7471 46.2376 43.8359C44.3774 45.338 43.3283 46.8032 43.1125 48.1943C43.0306 48.7493 43.0976 49.1489 43.3208 49.4375C43.4622 49.6225 43.7226 49.8223 44.1468 49.8223C44.1914 49.8223 44.2435 49.8223 44.2881 49.8149C45.0545 49.8149 45.8358 49.5633 46.6171 49.0601C47.3835 48.5643 47.9862 47.9723 48.4178 47.2916C48.9833 46.3444 48.9833 45.2123 48.4178 43.9247C48.5741 43.8285 48.9089 43.6435 49.6009 43.2957C50.5906 42.8073 50.8584 42.6446 50.9552 42.578L51.4686 42.393C51.5132 42.3782 51.543 42.3708 51.5802 42.356L50.9626 43.8877L49.9804 45.9966L46.126 55.5053C45.8507 56.1046 46.0591 56.4894 46.2823 56.7114C46.4832 56.9112 46.6692 57 46.8552 57C46.8701 57 46.885 57 46.8999 57C47.0189 56.9926 47.1901 56.9334 47.3612 56.6892L48.083 55.0983L51.1635 47.6986L52.3913 45.2641C52.6591 44.8349 53.5446 43.6361 55.1072 41.6012C55.6057 40.9352 56.4317 40.0695 57.5403 39.0335C58.2472 38.4415 58.6267 38.2343 58.783 38.1825C58.7979 38.3157 58.7755 38.7079 58.3291 39.7069C57.8231 40.839 57.4362 41.6012 57.1609 41.9786C56.9302 42.3412 56.7442 42.5928 56.6177 42.7407C56.4912 42.8813 56.3647 42.9997 56.2456 43.0885C56.1638 43.1551 55.9554 43.2809 55.4643 43.5251C54.3408 44.0801 53.4702 44.7239 52.8749 45.412C52.5773 45.708 52.5698 46.0854 52.8526 46.4554C53.0907 46.7736 53.4032 46.9808 53.805 47.0696C54.2217 47.114 54.6979 46.892 55.2262 46.3962C55.8587 45.8708 56.5284 45.1531 57.1981 44.2799C57.3097 44.1689 57.4362 44.0875 57.585 44.0283C58.2398 43.7397 58.5077 43.6583 58.6416 43.6287C59.6759 43.3105 60.3976 43.0219 60.8813 42.7555C60.7176 43.3771 60.6953 44.0283 60.8218 44.7017C60.9408 45.708 61.5361 46.2778 62.5629 46.3592C63.627 46.3592 64.5125 46.004 65.2119 45.3158L67.2135 43.3253C67.2135 43.3253 67.3028 43.2735 67.6599 43.3401C68.6719 43.5325 69.669 43.3993 70.6363 42.9331C70.5544 43.1181 70.48 43.3031 70.3908 43.5029L69.2969 46.1002C69.2225 46.3962 69.23 46.5738 69.3267 46.6996C69.3788 46.7662 69.4532 46.8106 69.5425 46.8254C69.6988 46.8698 69.8327 46.892 69.9517 46.892C70.4056 46.892 70.614 46.6108 70.7107 46.374C70.7256 46.3222 70.7777 46.2186 70.867 46.0632C71.0009 45.819 71.0828 45.6266 71.1125 45.5008C71.3432 44.9385 71.8938 44.0431 72.7346 42.8369C73.0323 42.4078 73.5606 41.8158 74.2972 41.0832C75.0413 40.3432 75.7259 39.8031 76.3211 39.4701C76.3286 40.7576 76.6857 41.6086 77.3852 41.9934C77.4298 42.0156 77.4745 42.023 77.5266 42.0156L77.4373 42.2376C77.4224 42.2672 77.4224 42.282 77.4224 42.3116C77.4224 42.3116 77.415 42.3264 77.4001 42.3708L77.3257 42.5262C77.3033 42.6076 77.2289 42.8221 76.9834 43.3771C76.775 43.8507 76.6337 44.1837 76.5667 44.3909C76.2691 45.1605 76.2393 45.8782 76.4625 46.5072C76.6857 47.1584 77.0206 47.5506 77.4447 47.6542C77.5266 47.6764 77.6158 47.6838 77.7051 47.6838C78.0995 47.6838 78.5385 47.4618 79.0296 47.0252C79.9672 46.2556 81.0387 45.4712 82.2069 44.6869C83.8588 43.5251 85.0419 42.5854 85.7041 41.9194C86.158 41.5938 86.1133 41.2756 86.0538 41.1054C86.0315 41.0462 85.9868 41.0018 85.9273 40.9722C85.7413 40.8834 85.5106 40.9722 85.1981 41.1498C82.445 43.1773 80.3541 44.6721 78.9999 45.5822L77.7423 46.2852C77.6531 46.3222 77.6084 46.3222 77.601 46.3296C77.5935 46.3148 77.5786 46.2704 77.5712 46.1372C77.5563 45.967 77.6605 45.3454 78.5832 43.0367L83.3305 32.5957C84.0597 30.7384 84.2829 30.4424 84.3647 30.3684C84.4317 30.3166 84.8261 30.1464 87.1104 30.1464C87.4006 30.1464 87.8024 30.1094 87.9661 29.8208C88.0331 29.5989 88.0033 29.3695 87.8545 29.1105Z" fill="black"/>
</g>
</svg>
